<?xml version="1.0" standalone="no"?>
<!DOCTYPE svg PUBLIC "-//W3C//DTD SVG 20010904//EN"
 "http://www.w3.org/TR/2001/REC-SVG-20010904/DTD/svg10.dtd">
<svg version="1.0" xmlns="http://www.w3.org/2000/svg"
 width="50.1302" height="50.1302" viewBox="0 0 512.000000 524.000000"
 preserveAspectRatio="xMidYMid meet">

<g transform="translate(0.000000,524.000000) scale(0.100000,-0.100000)"
fill="#000000" stroke="none">
<path d="M3242 5171 c-63 -22 -114 -67 -145 -131 -21 -43 -22 -57 -25 -371
l-3 -326 -157 -5 c-181 -6 -227 -20 -287 -91 -66 -77 -65 -65 -65 -839 l0
-698 -170 0 -170 0 -2 478 c0 262 0 487 1 500 5 53 -29 130 -80 186 -157 172
-492 271 -956 283 -310 8 -502 -14 -739 -83 -193 -56 -361 -164 -417 -268
l-22 -41 -3 -1089 c-3 -1235 -8 -1149 78 -1235 113 -113 363 -199 705 -242
129 -16 521 -16 650 0 415 52 676 161 758 316 22 39 22 50 25 537 l3 498 169
0 170 0 0 -698 c0 -766 0 -761 60 -834 16 -20 53 -48 82 -62 49 -25 60 -26
209 -26 l158 0 3 -332 c3 -327 3 -334 27 -380 12 -26 39 -62 59 -79 77 -68 23
-64 916 -67 926 -3 883 -6 966 77 78 78 80 92 80 521 0 397 -3 428 -54 495
-15 19 -48 47 -74 62 l-47 28 -397 5 -398 5 -25 26 c-19 19 -28 42 -35 86 -10
71 -27 109 -72 153 -67 68 -78 70 -431 70 -341 0 -353 -1 -422 -54 -17 -13
-44 -48 -60 -77 -29 -53 -30 -58 -33 -217 l-4 -163 -145 3 c-145 3 -145 3
-169 31 l-24 28 0 700 0 699 169 0 169 0 4 -247 3 -248 30 -54 c32 -58 83
-102 143 -123 29 -10 209 -13 857 -13 l820 0 51 27 c64 34 110 88 129 152 22
72 22 760 0 832 -19 64 -65 118 -129 152 l-51 27 -391 3 c-455 4 -425 -4 -443
111 -14 87 -53 148 -120 188 -70 42 -104 45 -431 41 -302 -4 -312 -5 -383 -67
-19 -18 -46 -53 -59 -79 -22 -45 -23 -59 -26 -294 l-4 -248 -169 0 -169 0 0
701 0 701 29 29 29 29 140 0 140 0 4 -157 c4 -177 16 -220 79 -282 74 -75 17
-71 945 -71 l832 0 53 28 c59 30 111 95 129 160 6 22 10 185 10 403 0 430 -2
445 -80 521 -79 76 -93 78 -521 78 -367 0 -368 0 -393 23 -19 16 -28 38 -35
83 -12 79 -40 134 -88 173 -67 56 -105 61 -422 61 -251 -1 -293 -3 -339 -19z
m653 -173 c20 -18 28 -37 35 -86 10 -73 46 -140 95 -178 67 -51 98 -54 491
-54 245 0 371 -4 387 -11 14 -6 30 -22 36 -36 7 -16 11 -142 11 -388 l0 -364
-24 -28 -24 -28 -791 -3 c-865 -3 -839 -4 -861 54 -6 15 -10 242 -10 554 l0
528 26 31 26 31 288 0 c285 0 289 0 315 -22z m-2447 -1023 c343 -48 602 -170
602 -284 0 -35 -84 -112 -161 -149 -219 -104 -488 -148 -852 -139 -388 9 -685
88 -818 216 -56 54 -62 84 -27 133 81 115 378 209 758 242 89 8 387 -4 498
-19z m-1113 -616 c103 -41 273 -84 422 -106 168 -25 543 -24 708 1 221 34 412
90 533 158 l52 29 0 -244 0 -245 -41 -37 c-269 -243 -1364 -268 -1744 -40 -99
59 -95 44 -95 323 l0 243 43 -25 c23 -14 78 -39 122 -57z m3560 -151 c20 -18
28 -37 34 -84 15 -100 59 -167 141 -210 32 -17 70 -19 433 -24 l399 -5 24 -28
24 -28 0 -370 0 -371 -29 -29 -29 -29 -797 0 -797 0 -29 29 -29 29 0 542 0
542 29 29 29 29 286 0 c281 0 285 0 311 -22z m-3667 -502 c186 -93 456 -144
807 -153 397 -9 747 47 957 153 26 13 50 24 53 24 3 0 5 -103 5 -229 0 -272 6
-258 -133 -326 -189 -94 -449 -138 -802 -139 -374 0 -633 46 -828 146 -122 63
-117 51 -117 319 0 126 2 229 5 229 3 0 27 -11 53 -24z m-32 -665 c20 -20 184
-80 284 -105 226 -56 507 -79 787 -65 299 15 550 68 715 150 32 16 60 29 63
29 3 0 5 -103 5 -229 l0 -229 -26 -31 c-58 -69 -286 -150 -524 -186 -147 -22
-465 -30 -628 -16 -325 29 -600 112 -678 203 -24 29 -24 30 -24 259 0 126 4
229 8 229 4 0 12 -4 18 -9z m3683 -615 c32 -17 51 -54 51 -99 0 -72 75 -177
149 -210 18 -8 150 -14 424 -17 l399 -5 24 -28 24 -28 0 -370 0 -371 -29 -29
-29 -29 -797 0 -797 0 -29 29 -29 29 0 539 c0 583 -1 571 54 593 11 5 142 9
289 9 213 1 274 -2 296 -13z"/>
<path d="M3464 4496 c-35 -15 -44 -32 -44 -81 0 -67 87 -99 135 -50 65 64 -7
167 -91 131z"/>
<path d="M3440 4140 c-31 -31 -27 -93 6 -119 56 -44 134 -8 134 62 0 67 -92
105 -140 57z"/>
<path d="M377 3120 c-33 -26 -41 -63 -23 -99 29 -55 105 -60 140 -9 54 77 -42
167 -117 108z"/>
<path d="M3442 2687 c-49 -52 -13 -137 57 -137 68 0 104 78 60 134 -27 35 -86
36 -117 3z"/>
<path d="M3442 2347 c-50 -53 -13 -137 60 -137 70 0 103 86 53 135 -32 33 -83
34 -113 2z"/>
<path d="M390 2447 c-32 -16 -52 -59 -44 -92 8 -32 49 -65 81 -65 33 0 83 51
83 85 0 31 -49 85 -77 85 -10 0 -29 -6 -43 -13z"/>
<path d="M391 1764 c-56 -24 -63 -95 -14 -134 78 -61 174 35 113 112 -24 32
-59 39 -99 22z"/>
<path d="M3446 899 c-20 -16 -26 -29 -26 -58 0 -49 32 -81 82 -81 70 0 103 86
53 135 -30 31 -73 32 -109 4z"/>
<path d="M3446 559 c-19 -15 -26 -30 -26 -55 0 -47 14 -70 50 -83 83 -28 147
72 85 134 -30 31 -73 32 -109 4z"/>
</g>
</svg>
