<svg width="51" height="51" viewBox="0 0 51 51" fill="none" xmlns="http://www.w3.org/2000/svg">
<g clip-path="url(#clip0_1218_243)">
<path d="M8.62261 14.5318C9.08405 14.5318 9.45812 14.1578 9.45812 13.6963C9.45812 13.2349 9.08405 12.8608 8.62261 12.8608C8.16118 12.8608 7.78711 13.2349 7.78711 13.6963C7.78711 14.1578 8.16118 14.5318 8.62261 14.5318Z" fill="white"/>
<path d="M14.1949 14.5318C14.6563 14.5318 15.0304 14.1578 15.0304 13.6963C15.0304 13.2349 14.6563 12.8608 14.1949 12.8608C13.7334 12.8608 13.3594 13.2349 13.3594 13.6963C13.3594 14.1578 13.7334 14.5318 14.1949 14.5318Z" fill="white"/>
<path d="M11.4127 14.5318C11.8741 14.5318 12.2482 14.1578 12.2482 13.6963C12.2482 13.2349 11.8741 12.8608 11.4127 12.8608C10.9512 12.8608 10.5771 13.2349 10.5771 13.6963C10.5771 14.1578 10.9512 14.5318 11.4127 14.5318Z" fill="white"/>
<path d="M17.5378 25.8195L20.0443 23.313C20.2016 23.1557 20.29 22.9423 20.29 22.7198C20.29 22.4973 20.2016 22.2839 20.0443 22.1266C19.887 21.9692 19.6736 21.8809 19.4511 21.8809C19.2286 21.8809 19.0152 21.9692 18.8579 22.1266L15.7498 25.243C15.5942 25.3995 15.5068 25.6113 15.5068 25.832C15.5068 26.0528 15.5942 26.2645 15.7498 26.4211L18.8579 29.5375C18.9355 29.6158 19.0279 29.678 19.1298 29.7204C19.2316 29.7628 19.3408 29.7846 19.4511 29.7846C19.5614 29.7846 19.6706 29.7628 19.7724 29.7204C19.8742 29.678 19.9666 29.6158 20.0443 29.5375C20.1999 29.381 20.2872 29.1692 20.2872 28.9485C20.2872 28.7277 20.1999 28.516 20.0443 28.3594L17.5378 25.8195Z" fill="white"/>
<path d="M29.5018 29.5206C29.6584 29.6762 29.8701 29.7636 30.0909 29.7636C30.3116 29.7636 30.5233 29.6762 30.6799 29.5206L33.7963 26.4459C33.9519 26.2894 34.0393 26.0776 34.0393 25.8569C34.0393 25.6362 33.9519 25.4244 33.7963 25.2679L30.6799 22.1515C30.5226 21.9952 30.3096 21.9079 30.0879 21.9087C29.8662 21.9095 29.6539 21.9983 29.4976 22.1556C29.3414 22.313 29.2541 22.5259 29.2549 22.7476C29.2557 22.9693 29.3445 23.1817 29.5018 23.3379L32.0083 25.8444L29.5018 28.3509C29.3487 28.5071 29.263 28.7171 29.263 28.9357C29.263 29.1544 29.3487 29.3644 29.5018 29.5206Z" fill="white"/>
<path d="M26.7282 22.394C26.6328 22.3388 26.5275 22.303 26.4182 22.2886C26.3089 22.2743 26.1979 22.2817 26.0915 22.3104C25.9851 22.3391 25.8855 22.3886 25.7983 22.456C25.7111 22.5234 25.6381 22.6074 25.5835 22.7032L22.5005 28.1172C22.4401 28.2123 22.3995 28.3187 22.3812 28.4299C22.3629 28.5411 22.3673 28.6548 22.3941 28.7642C22.4209 28.8737 22.4696 28.9766 22.5372 29.0667C22.6048 29.1569 22.6899 29.2324 22.7875 29.2888C22.8851 29.3452 22.993 29.3813 23.1049 29.3949C23.2167 29.4085 23.3302 29.3993 23.4384 29.3679C23.5466 29.3365 23.6474 29.2835 23.7346 29.2122C23.8218 29.1408 23.8937 29.0526 23.9459 28.9527L27.0624 23.5637C27.1207 23.4659 27.1583 23.3571 27.173 23.2441C27.1877 23.1311 27.1792 23.0163 27.1479 22.9067C27.1166 22.7972 27.0632 22.6952 26.991 22.607C26.9188 22.5188 26.8294 22.4464 26.7282 22.394Z" fill="white"/>
<path d="M47.4986 33.9656C47.4493 33.9652 47.4013 33.9498 47.361 33.9214C47.3207 33.8931 47.29 33.8531 47.273 33.8068C46.9406 32.9323 46.4694 32.117 45.8777 31.3922C45.8497 31.3517 45.8347 31.3036 45.8347 31.2544C45.8347 31.2051 45.8497 31.157 45.8777 31.1165C46.1322 30.6755 46.2012 30.1515 46.0696 29.6596C45.938 29.1677 45.6166 28.7481 45.1759 28.493L44.5493 28.1171V12.8608C44.5493 12.196 44.2852 11.5585 43.8151 11.0884C43.3451 10.6183 42.7075 10.3542 42.0428 10.3542H7.51139C6.84663 10.3542 6.20909 10.6183 5.73902 11.0884C5.26896 11.5585 5.00488 12.196 5.00488 12.8608V34.0324C5.00708 34.5481 5.21289 35.0419 5.57749 35.4065C5.9421 35.7711 6.43598 35.977 6.95161 35.9792H18.3729L17.5374 39.0705H16.4262C15.6124 39.0711 14.8226 39.346 14.1844 39.8508C13.5461 40.3557 13.0967 41.061 12.9087 41.8527H10.8534C10.6318 41.8527 10.4193 41.9408 10.2626 42.0975C10.1059 42.2541 10.0179 42.4667 10.0179 42.6882C10.0179 42.9098 10.1059 43.1223 10.2626 43.279C10.4193 43.4357 10.6318 43.5237 10.8534 43.5237H32.1337C32.1195 43.7234 32.1393 43.9239 32.1922 44.117C32.2548 44.3621 32.3663 44.592 32.5199 44.793C32.6735 44.994 32.8661 45.1619 33.0862 45.2867L34.8491 46.306C35.068 46.4316 35.3095 46.5129 35.5598 46.5452C35.8101 46.5776 36.0643 46.5603 36.3079 46.4943C36.5515 46.4284 36.7798 46.3151 36.9796 46.1609C37.1794 46.0067 37.3469 45.8147 37.4726 45.5958C37.4996 45.5532 37.5386 45.5194 37.5846 45.4986C37.6306 45.4778 37.6817 45.471 37.7316 45.4788C38.6494 45.6376 39.5876 45.6376 40.5054 45.4788C40.5563 45.4706 40.6084 45.4782 40.6547 45.5006C40.7011 45.523 40.7394 45.5592 40.7644 45.6042C40.9347 45.8957 41.1789 46.1373 41.4722 46.3045C41.7656 46.4717 42.0978 46.5587 42.4355 46.5566C42.7723 46.5599 43.1039 46.4734 43.3963 46.306L45.1592 45.2867C45.3781 45.1604 45.5698 44.992 45.7232 44.7912C45.8766 44.5905 45.9888 44.3613 46.0532 44.117C46.1197 43.8741 46.137 43.6203 46.104 43.3707C46.071 43.121 45.9884 42.8804 45.861 42.6632C45.8323 42.6214 45.8169 42.5719 45.8169 42.5211C45.8169 42.4704 45.8323 42.4209 45.861 42.3791C46.4509 41.6562 46.9219 40.8439 47.2563 39.9729C47.2722 39.9259 47.3027 39.8852 47.3432 39.8567C47.3838 39.8282 47.4323 39.8133 47.4819 39.8141C47.9909 39.8119 48.4784 39.6087 48.8383 39.2488C49.1982 38.8889 49.4014 38.4014 49.4036 37.8925V35.8538C49.3949 35.3529 49.1908 34.8751 48.835 34.5224C48.4792 34.1697 47.9996 33.9699 47.4986 33.9656ZM6.67589 12.8608C6.67589 12.6392 6.76392 12.4267 6.9206 12.27C7.07729 12.1133 7.2898 12.0253 7.51139 12.0253H42.0428C42.2644 12.0253 42.4769 12.1133 42.6336 12.27C42.7902 12.4267 42.8783 12.6392 42.8783 12.8608V15.3673H6.67589V12.8608ZM6.95161 34.3081C6.9154 34.3081 6.87955 34.301 6.84609 34.2872C6.81264 34.2733 6.78225 34.253 6.75665 34.2274C6.73104 34.2018 6.71073 34.1714 6.69688 34.1379C6.68302 34.1045 6.67589 34.0686 6.67589 34.0324V17.0383H42.8783V27.2816C42.4829 27.1765 42.0643 27.201 41.6838 27.3514C41.3034 27.5018 40.9812 27.7701 40.7644 28.1171C40.7384 28.1583 40.7006 28.1907 40.6559 28.2101C40.6112 28.2294 40.5616 28.2349 40.5138 28.2257C39.5953 28.0752 38.6584 28.0752 37.7399 28.2257C37.692 28.2361 37.6421 28.2312 37.5971 28.2118C37.5521 28.1923 37.5144 28.1591 37.4893 28.1171C37.3638 27.898 37.1962 27.706 36.9961 27.552C36.796 27.3981 36.5675 27.2852 36.3236 27.22C36.0798 27.1547 35.8254 27.1384 35.5752 27.1719C35.325 27.2054 35.0839 27.2881 34.8658 27.4152L33.1029 28.4346C32.8834 28.558 32.6911 28.7245 32.5375 28.9241C32.3839 29.1236 32.2721 29.3521 32.2089 29.5959C32.0753 30.0885 32.1413 30.6139 32.3927 31.058C32.4232 31.0975 32.4397 31.146 32.4397 31.1959C32.4397 31.2458 32.4232 31.2943 32.3927 31.3337C31.801 32.0585 31.3299 32.8738 30.9974 33.7484C30.9804 33.7946 30.9497 33.8346 30.9094 33.863C30.8691 33.8913 30.8211 33.9067 30.7718 33.9071C30.3626 33.9077 29.9643 34.0395 29.6355 34.2831L6.95161 34.3081ZM29.2345 39.0705H19.2084L20.044 35.9792H28.8167V37.8925C28.8221 38.3205 28.969 38.7347 29.2345 39.0705ZM16.4346 40.7415H31.3065C31.4975 41.1267 31.7153 41.498 31.9582 41.8527H14.6717C14.8294 41.5208 15.0779 41.2403 15.3884 41.0436C15.6989 40.847 16.0587 40.7422 16.4262 40.7415H16.4346ZM47.7493 37.8925C47.7493 37.9589 47.7228 38.0227 47.6758 38.0697C47.6288 38.1167 47.5651 38.1431 47.4986 38.1431C47.1094 38.1441 46.7296 38.2627 46.409 38.4833C46.0885 38.704 45.8421 39.0165 45.7023 39.3796C45.4352 40.0841 45.0572 40.7413 44.5827 41.3264C44.338 41.6286 44.1903 41.9978 44.159 42.3854C44.1277 42.773 44.2142 43.1611 44.4072 43.4987C44.4207 43.5275 44.4276 43.5588 44.4276 43.5906C44.4276 43.6223 44.4207 43.6537 44.4072 43.6825C44.4 43.7157 44.3858 43.747 44.3656 43.7743C44.3455 43.8017 44.3198 43.8245 44.2903 43.8412L42.5524 44.8271C42.5234 44.8433 42.4915 44.8535 42.4585 44.8572C42.4255 44.8609 42.392 44.858 42.3602 44.8487C42.3283 44.8393 42.2986 44.8237 42.2728 44.8028C42.247 44.7819 42.2256 44.7561 42.2099 44.7269C42.0123 44.3902 41.7173 44.1213 41.3638 43.9557C41.0103 43.7901 40.6148 43.7357 40.2297 43.7995C39.4942 43.9248 38.7428 43.9248 38.0073 43.7995C37.6213 43.7364 37.2252 43.7922 36.8716 43.9593C36.518 44.1264 36.2235 44.397 36.0271 44.7352C35.9924 44.7913 35.9377 44.8319 35.8741 44.849C35.8104 44.8661 35.7427 44.8583 35.6846 44.8271L33.9217 43.8078C33.8921 43.791 33.8665 43.7682 33.8463 43.7409C33.8262 43.7135 33.812 43.6823 33.8047 43.6491C33.7913 43.6203 33.7843 43.5889 33.7843 43.5572C33.7843 43.5254 33.7913 43.494 33.8047 43.4653C33.9955 43.127 34.0807 42.7394 34.0494 42.3523C34.0182 41.9651 33.8718 41.5962 33.6292 41.293C33.1504 40.7093 32.7695 40.0519 32.5013 39.3462C32.3612 38.9926 32.1184 38.689 31.8042 38.4746C31.49 38.2602 31.1188 38.1447 30.7384 38.1431C30.6719 38.1431 30.6082 38.1167 30.5612 38.0697C30.5142 38.0227 30.4877 37.9589 30.4877 37.8925V35.8538C30.4866 35.8206 30.4923 35.7875 30.5044 35.7565C30.5166 35.7256 30.5351 35.6975 30.5586 35.674C30.5821 35.6505 30.6102 35.6321 30.6411 35.6199C30.6721 35.6077 30.7052 35.602 30.7384 35.6032C31.1264 35.6017 31.5049 35.4827 31.824 35.262C32.1432 35.0413 32.388 34.7292 32.5264 34.3666C32.7926 33.6601 33.1737 33.0023 33.6543 32.4199C33.8969 32.1166 34.0432 31.7477 34.0745 31.3606C34.1058 30.9735 34.0205 30.5859 33.8298 30.2476C33.8162 30.2174 33.8091 30.1846 33.8091 30.1515C33.8091 30.1184 33.8162 30.0856 33.8298 30.0554C33.8365 30.0231 33.8506 29.9928 33.8709 29.9667C33.8911 29.9407 33.9171 29.9196 33.9467 29.905L35.7096 28.8857C35.7506 28.8743 35.794 28.8743 35.835 28.8857C35.8768 28.8862 35.9178 28.8972 35.9543 28.9177C35.9908 28.9381 36.0216 28.9673 36.0438 29.0027C36.2411 29.3401 36.5357 29.61 36.8891 29.777C37.2425 29.944 37.6381 30.0003 38.024 29.9385C38.7595 29.8132 39.5109 29.8132 40.2464 29.9385C40.6349 29.9909 41.0302 29.9249 41.3805 29.749C41.7309 29.5731 42.0199 29.2955 42.2099 28.9526C42.2262 28.925 42.2478 28.901 42.2735 28.8818C42.2992 28.8627 42.3284 28.8488 42.3595 28.841C42.3906 28.8333 42.4229 28.8317 42.4546 28.8365C42.4863 28.8413 42.5167 28.8524 42.5441 28.869L44.307 29.8883C44.3366 29.9029 44.3626 29.924 44.3828 29.95C44.4031 29.9761 44.4172 30.0064 44.424 30.0387C44.4376 30.0689 44.4446 30.1017 44.4446 30.1348C44.4446 30.1679 44.4376 30.2007 44.424 30.2309C44.2316 30.5672 44.1455 30.9538 44.1768 31.34C44.2081 31.7262 44.3554 32.0939 44.5994 32.3948C45.0741 32.9829 45.4521 33.6429 45.719 34.3499C45.8507 34.7192 46.0913 35.0399 46.409 35.2696C46.7267 35.4993 47.1066 35.6273 47.4986 35.6366C47.5318 35.6354 47.5649 35.6411 47.5959 35.6533C47.6268 35.6655 47.6549 35.6839 47.6784 35.7074C47.702 35.7309 47.7204 35.759 47.7326 35.79C47.7447 35.8209 47.7504 35.854 47.7493 35.8872V37.8925Z" fill="white"/>
<path d="M39.1184 33.0798C38.3682 33.0798 37.6348 33.3023 37.011 33.7191C36.3872 34.1359 35.901 34.7283 35.6139 35.4214C35.3268 36.1145 35.2517 36.8772 35.3981 37.613C35.5444 38.3488 35.9057 39.0247 36.4362 39.5552C36.9667 40.0857 37.6426 40.447 38.3784 40.5933C39.1142 40.7397 39.8769 40.6646 40.57 40.3775C41.2631 40.0904 41.8555 39.6042 42.2723 38.9804C42.6891 38.3566 42.9116 37.6232 42.9116 36.873C42.9116 35.867 42.5119 34.9022 41.8006 34.1908C41.0892 33.4795 40.1244 33.0798 39.1184 33.0798ZM39.1184 38.9952C38.6987 38.9952 38.2884 38.8707 37.9394 38.6376C37.5904 38.4044 37.3184 38.0729 37.1577 37.6851C36.9971 37.2974 36.9551 36.8707 37.037 36.459C37.1189 36.0473 37.321 35.6692 37.6178 35.3724C37.9146 35.0756 38.2927 34.8735 38.7044 34.7916C39.116 34.7097 39.5427 34.7518 39.9305 34.9124C40.3183 35.073 40.6497 35.345 40.8829 35.694C41.1161 36.043 41.2406 36.4533 41.2406 36.873C41.2362 37.433 41.0106 37.9685 40.6131 38.3628C40.2156 38.7572 39.6783 38.9785 39.1184 38.9785V38.9952Z" fill="white"/>
</g>
<defs>
<clipPath id="clip0_1218_243">
<rect width="50.1302" height="50.1302" fill="white" transform="translate(0.827148 0.54541)"/>
</clipPath>
</defs>
</svg>
