<?xml version="1.0" standalone="no"?>
<!DOCTYPE svg PUBLIC "-//W3C//DTD SVG 20010904//EN"
 "http://www.w3.org/TR/2001/REC-SVG-20010904/DTD/svg10.dtd">
<svg version="1.0" xmlns="http://www.w3.org/2000/svg"
 width="50.1302" height="50.1302" viewBox="0 0 512.000000 524.000000"
 preserveAspectRatio="xMidYMid meet">

<g transform="translate(0.000000,524.000000) scale(0.100000,-0.100000)"
fill="#000000" stroke="none">
<path d="M832 5055 c-55 -24 -98 -63 -128 -117 l-29 -53 -3 -231 -3 -232 -159
-4 c-152 -4 -160 -5 -216 -34 -64 -32 -115 -94 -134 -162 -6 -25 -10 -598 -10
-1698 0 -1436 2 -1667 15 -1710 18 -60 72 -127 129 -157 l41 -22 903 -3 902
-2 0 -185 c0 -178 7 -231 33 -247 16 -10 1278 -10 1294 0 26 16 33 69 33 247
l0 184 383 3 c372 3 383 4 423 25 23 12 58 41 78 65 58 67 66 111 66 355 l0
213 158 0 c143 0 161 2 207 24 28 12 67 41 87 64 73 81 69 -44 66 1827 l-3
1680 -29 53 c-31 55 -74 94 -131 118 -51 21 -3923 21 -3973 -1z m3934 -124
c72 -33 74 -45 74 -390 l0 -301 -1235 0 -1235 0 -164 168 -164 167 -358 3
c-387 2 -388 2 -428 -51 -18 -25 -21 -45 -24 -158 l-4 -129 -214 0 -214 0 0
306 c0 346 1 351 75 385 38 18 116 19 1945 19 1833 0 1907 -1 1946 -19z
m-2631 -633 c82 -84 158 -158 169 -165 16 -9 311 -12 1279 -13 l1257 0 -2
-1314 -3 -1315 -30 -31 c-16 -16 -46 -35 -66 -40 -23 -6 -276 -9 -675 -8
l-639 3 55 26 c81 39 105 69 104 132 0 49 -19 86 -345 671 -239 427 -353 623
-370 632 -31 17 -63 17 -97 0 -38 -19 -713 -1231 -719 -1291 -7 -70 23 -108
122 -152 39 -18 23 -18 -599 -21 -399 -1 -652 2 -675 8 -20 5 -50 24 -66 40
l-30 31 -3 1315 -2 1314 243 0 c204 0 246 3 265 16 43 30 52 65 52 194 l0 120
314 0 314 0 147 -152z m-1463 -1415 l3 -1408 22 -41 c29 -54 101 -117 151
-132 29 -9 239 -12 770 -12 l731 0 16 -52 c8 -28 15 -67 15 -85 l0 -33 -67 0
c-50 0 -77 -5 -100 -20 -59 -35 -67 -59 -71 -207 l-4 -133 -888 0 c-885 0
-887 0 -914 21 -60 47 -56 -75 -56 1746 0 1611 1 1669 19 1699 33 53 69 64
228 64 l143 0 2 -1407z m2088 -437 l0 -163 -48 -30 c-91 -57 -117 -161 -64
-264 34 -67 88 -99 168 -99 90 0 149 37 185 115 41 87 7 197 -76 249 l-45 29
0 165 c0 97 4 162 9 157 21 -23 571 -1027 566 -1035 -3 -5 -18 -11 -35 -15
-45 -10 -142 -77 -182 -126 -62 -77 -108 -194 -108 -276 l0 -33 -310 0 -310 0
0 30 c0 170 -124 346 -290 410 -19 7 -36 15 -38 16 -4 3 568 1034 574 1034 2
0 4 -74 4 -164z m110 -306 c49 -49 3 -139 -65 -126 -38 8 -55 31 -55 73 0 42
30 73 70 73 17 0 39 -9 50 -20z m1450 -1065 c0 -234 -4 -253 -56 -294 -26 -20
-37 -21 -395 -21 l-369 0 0 108 c-1 134 -10 177 -49 216 -29 28 -38 31 -111
34 l-80 4 0 32 c0 18 7 56 15 84 l16 52 514 0 515 0 0 -215z m-955 -420 l0
-340 -545 0 -545 0 -3 320 c-1 176 0 330 3 343 l5 22 543 -2 542 -3 0 -340z"/>
<path d="M3556 4766 c-82 -31 -122 -97 -114 -191 13 -151 183 -213 298 -108
45 40 65 95 57 156 -14 106 -139 180 -241 143z m96 -133 c36 -33 13 -93 -37
-93 -24 0 -55 33 -55 57 0 19 37 53 57 53 9 0 25 -7 35 -17z"/>
<path d="M4011 4769 c-150 -45 -177 -248 -43 -326 66 -39 136 -38 193 2 61 43
81 86 77 161 -3 48 -10 69 -31 98 -46 60 -125 86 -196 65z m89 -139 c24 -24
25 -38 4 -68 -29 -41 -94 -19 -94 33 0 51 54 71 90 35z"/>
<path d="M4447 4765 c-129 -45 -164 -200 -68 -296 106 -107 284 -46 306 105
13 82 -49 172 -132 195 -48 14 -59 13 -106 -4z m95 -132 c34 -31 11 -93 -35
-93 -27 0 -57 28 -57 53 0 48 56 73 92 40z"/>
<path d="M2602 3614 c-36 -25 -52 -68 -52 -139 l0 -65 -458 0 -459 0 -12 41
c-14 45 -70 113 -112 134 -126 66 -288 18 -351 -104 -70 -134 -11 -290 131
-354 57 -25 157 -20 217 11 46 24 92 73 106 114 l10 28 314 0 c173 0 314 -2
314 -4 0 -2 -29 -21 -65 -41 -272 -152 -490 -419 -588 -721 l-32 -99 -75 -5
c-138 -9 -150 -32 -150 -272 0 -154 2 -177 20 -205 34 -57 59 -63 250 -63 268
0 270 2 270 270 0 200 -6 227 -60 255 -16 8 -49 15 -75 15 -25 0 -45 4 -45 8
0 20 50 152 80 212 139 277 384 491 676 589 l89 30 5 -38 c8 -52 35 -90 75
-107 48 -20 342 -20 389 0 44 18 76 61 76 102 0 42 11 43 106 10 326 -111 597
-375 714 -695 39 -107 39 -111 -10 -111 -23 0 -54 -7 -70 -15 -57 -29 -60 -42
-60 -248 0 -277 0 -277 272 -277 154 0 177 2 205 20 59 36 65 60 61 266 l-3
184 -33 32 c-30 31 -38 33 -113 38 l-80 5 -35 105 c-101 303 -299 546 -578
712 l-81 48 317 0 318 0 19 -37 c70 -138 259 -175 387 -78 18 14 45 50 60 81
87 178 -30 367 -227 367 -112 0 -212 -68 -240 -162 l-12 -41 -459 0 -458 0 0
65 c0 77 -18 118 -60 140 -43 22 -396 22 -428 -1z m366 -250 l3 -141 -143 -5
c-79 -3 -145 -3 -148 -1 -3 3 -6 70 -8 149 l-3 145 148 -3 148 -3 3 -141z
m-1503 93 c39 -39 50 -72 41 -121 -13 -71 -79 -111 -154 -95 -110 23 -132 180
-33 234 14 8 46 14 70 15 36 0 49 -6 76 -33z m2854 19 c101 -53 80 -210 -31
-235 -73 -16 -145 33 -155 106 -14 102 93 176 186 129z m-2561 -1332 l3 -141
-83 -6 c-144 -12 -205 -9 -212 9 -8 22 -8 269 1 278 4 3 70 5 147 4 l141 -3 3
-141z m2422 2 l0 -143 -82 -6 c-46 -4 -111 -7 -145 -7 l-63 0 0 150 0 150 145
0 145 0 0 -144z"/>
</g>
</svg>
